
<svg width="38px" height="33px" viewBox="0 0 38 33" version="1.1" xmlns="http://www.w3.org/2000/svg" xmlns:xlink="http://www.w3.org/1999/xlink">
    <!-- Generator: Sketch 45 (43475) - http://www.bohemiancoding.com/sketch -->
    <desc>Created with Sketch.</desc>
    <defs></defs>
    <g id="Symbols" stroke="none" stroke-width="1" fill="none" fill-rule="evenodd">
        <g id="icon-menue-/-heart-unfill" fill-rule="nonzero">
            <g id="heart-">
                <path d="M33.8406079,19.5464361 C32.2722113,21.4330719 30.7665506,23.1310441 18.7840006,32.6899986 C6.73871479,23.1310441 5.29578993,21.4330719 3.72739334,19.5464361 C-2.04430611,12.6287716 -0.475909523,4.8306771 4.10380852,1.56050843 C8.18163966,-1.33233308 13.9533391,-0.263239479 18.7840006,5.27089211 C23.6146621,-0.20035162 29.3863616,-1.33233308 33.4641927,1.56050843 C38.0439107,4.8306771 39.6750432,12.6287716 33.8406079,19.5464361 Z" id="Shape" fill="#69AAA4"></path>
                <path d="M33.8406079,19.5464361 C33.4881404,19.9704218 32.7562492,20.8660718 31.5269737,22.0484903 C30.2976982,23.2309087 29.4055855,23.9662144 27.9912603,25.1847069 C25.7663328,27.1015627 22.6972463,29.6033266 18.7840006,32.6899986 L18.7840006,5.27089211 C19.3213544,4.62876166 20.0078344,3.9481294 20.8434406,3.22899532 C21.5299271,2.6381957 22.876739,1.58344675 24.6489478,0.845407779 C26.4211567,0.107368808 27.5964053,0.0060355985 28.5708772,0.0060355985 C30.7253365,0.0060355985 32.1755051,0.641136915 33.4641927,1.56050843 C38.0454224,4.82883518 39.6750432,12.6287716 33.8406079,19.5464361 Z" id="Shape" fill="#528782"></path>
                <path d="M31.2235058,19.5464361 C30.9323033,19.9704218 30.3276276,20.8660718 29.3120218,22.0484903 C28.2964159,23.2309087 27.559368,23.9662144 26.3908772,25.1847069 C24.5526812,27.1015627 22.0170556,29.6033266 18.7840006,32.6899986 L18.7840006,5.27089211 C19.2279529,4.62876166 19.7951107,3.9481294 20.4854739,3.22899532 C21.0526369,2.6381957 22.1653494,1.58344675 23.6295173,0.845407779 C25.0936852,0.107368808 26.064655,0.0060355985 26.8697466,0.0060355985 C28.6497231,0.0060355985 29.847827,0.641136915 30.9125182,1.56050843 C34.6974499,4.82883518 36.043814,12.6287716 31.2235058,19.5464361 Z" id="Shape" fill="#69AAA4"></path>
                <path d="M28.2797241,19.5464361 C28.0574341,19.9704218 27.5958536,20.8660718 26.8205886,22.0484903 C26.0453236,23.2309087 25.4826965,23.9662144 24.5907265,25.1847069 C23.1875355,27.1015627 21.2519602,29.6033266 18.7840006,32.6899986 L18.7840006,5.27089211 C19.1228926,4.62876166 19.5558337,3.9481294 20.0828239,3.22899532 C20.5157691,2.6381957 21.3651606,1.58344675 22.4828363,0.845407779 C23.6005121,0.107368808 24.3417041,0.0060355985 24.9562725,0.0060355985 C26.3150215,0.0060355985 27.2295967,0.641136915 28.042331,1.56050843 C30.9315669,4.82883518 31.959317,12.6287716 28.2797241,19.5464361 Z" id="Shape" fill="#528782"></path>
            </g>
        </g>
    </g>
</svg>