
<svg width="34px" height="46px" viewBox="0 0 34 46" version="1.1" xmlns="http://www.w3.org/2000/svg" xmlns:xlink="http://www.w3.org/1999/xlink">
    <!-- Generator: Sketch 45 (43475) - http://www.bohemiancoding.com/sketch -->
    <desc>Created with Sketch.</desc>
    <defs></defs>
    <g id="Symbols" stroke="none" stroke-width="1" fill="none" fill-rule="evenodd">
        <g id="icon-menue-/-partypeople-unfill" fill="#69AAA4">
            <g id="partypeople">
                <path d="M4.00073446,12.67497 C3.9935114,12.7562542 3.98989987,12.8197417 3.98989987,12.8654326 C3.98989987,12.9798299 3.99354781,13.0933808 4.00073446,13.205977 C4.17758109,15.9767032 6.49725093,18.1692968 9.33240781,18.1692968 C12.283197,18.1692968 14.6749157,15.7944632 14.6749157,12.8654326 C14.6749157,11.6916229 14.2908456,10.6069257 13.6406866,9.72838865 C13.5682986,9.63057325 13.4542009,9.49302977 13.2983935,9.31575822 L4.00073446,12.67497 Z M10.9218729,15.3103705 C10.8646287,15.3103705 10.8065489,15.080976 10.5675442,15.080976 C10.4329995,15.080976 9.88938912,15.0730945 9.58687264,15.0689463 C9.46486323,15.067287 9.3612388,14.9834938 9.33240781,14.8661003 L9.33198997,14.8648558 L9.33157213,14.8661003 C9.30315898,14.9839086 9.19911671,15.067287 9.07752514,15.0689463 C8.77500865,15.0735093 8.23139823,15.080976 8.09685361,15.080976 C7.85784888,15.080976 7.79976905,15.3103705 7.74252491,15.3103705 C7.66104603,15.3103705 7.66104603,15.1726508 7.66104603,15.1726508 C7.66104603,14.4384228 8.49338419,14.3533851 8.49338419,14.3533851 L9.23922939,14.3533851 L9.42433271,14.3533851 L10.1701779,14.3533851 C10.1701779,14.3533851 11.0025161,14.4384228 11.0025161,15.1726508 C11.0029339,15.1726508 11.0029339,15.3103705 10.9218729,15.3103705 Z" id="Shape" fill-rule="nonzero"></path>
                <path d="M25.0879175,7.56156832 C22.1371283,7.56156832 19.7454095,9.93640195 19.7454095,12.8654326 C19.7454095,14.2629547 19.7454095,16.481402 19.7454095,16.481402 L21.2086868,16.5050466 C22.1826729,17.5275732 23.5582036,18.1692968 25.0879175,18.1692968 C26.5562088,18.1692968 27.8853593,17.5806699 28.8514064,16.6286624 L30.4308433,16.6543811 C30.4308433,16.6543811 30.4308433,14.3496517 30.4308433,12.8654326 C30.4304254,9.93598713 28.0387067,7.56156832 25.0879175,7.56156832 Z M25.1276123,15.9209827 L25.0883353,15.9209827 L25.0490583,15.9209827 C24.347922,15.9209827 24.2572507,15.5878838 24.2572507,15.5878838 C24.2572507,15.5878838 24.6730019,15.2174512 24.9153494,15.2174512 C25.0340161,15.2174512 25.0035137,15.2381921 25.0883353,15.2381921 C25.1731569,15.2381921 25.1430724,15.2174512 25.2613213,15.2174512 C25.5036687,15.2174512 25.91942,15.5878838 25.91942,15.5878838 C25.91942,15.5878838 25.8283307,15.9209827 25.1276123,15.9209827 Z" id="Shape" fill-rule="nonzero"></path>
                <path d="M26.3874013,19.1018079 L23.7884337,19.1018079 C20.4824801,19.1018079 17.7259867,21.523516 17.2099537,24.6665927 C16.6943386,21.523516 13.9378452,19.1018079 10.6314738,19.1018079 L8.03250618,19.1018079 C4.36261355,19.1018079 1.36001211,22.0826908 1.36001211,25.7260382 L1.36001211,38.4767169 C1.36001211,42.1200643 4.36261355,45.1009472 8.03250618,45.1009472 L10.6314738,45.1009472 C13.9374274,45.1009472 16.6939208,42.6792391 17.2099537,39.5361624 C17.7255688,42.6792391 20.4820622,45.1009472 23.7884337,45.1009472 L26.3874013,45.1009472 C30.0572939,45.1009472 33.0598953,42.1200643 33.0598953,38.4767169 L33.0598953,25.7260382 C33.0598953,22.0826908 30.0572939,19.1018079 26.3874013,19.1018079 Z M6.88845904,23.9684539 C6.58051063,24.1177884 6.22116785,23.8950311 6.22116785,23.5548802 L6.22116785,22.013831 C6.22116785,21.6736801 6.58051063,21.4509228 6.88845904,21.6002573 L9.00064249,22.6240284 C9.13560496,22.6895697 9.13560496,22.8799712 9.00064249,22.9455124 L6.88845904,23.9684539 Z M9.33240781,39.6133185 C8.96637958,39.6133185 8.66971286,39.3187977 8.66971286,38.955417 C8.66971286,38.5920364 8.96637958,38.2975155 9.33240781,38.2975155 C9.69843604,38.2975155 9.99510275,38.5920364 9.99510275,38.955417 C9.99510275,39.3187977 9.69843604,39.6133185 9.33240781,39.6133185 Z M9.33240781,33.8465173 C8.96637958,33.8465173 8.66971286,33.5519965 8.66971286,33.1886158 C8.66971286,32.8252351 8.96637958,32.5307143 9.33240781,32.5307143 C9.69843604,32.5307143 9.99510275,32.8252351 9.99510275,33.1886158 C9.99510275,33.5519965 9.69843604,33.8465173 9.33240781,33.8465173 Z M9.80080695,27.8872405 C9.54216371,28.1440129 9.12223406,28.1440129 8.86359083,27.8872405 C8.60494759,27.6300532 8.60494759,27.2135759 8.86359083,26.9568035 C9.12223406,26.6996162 9.54216371,26.6996162 9.80080695,26.9568035 C10.059868,27.2135759 10.059868,27.6304681 9.80080695,27.8872405 Z M12.4432299,23.5125688 C12.4432299,23.8726309 12.063413,24.1078327 11.7379153,23.9502019 L9.66417312,22.9450976 C9.52921066,22.8795563 9.52921066,22.6891548 9.66417312,22.6236136 L11.7379153,21.6185093 C12.0638308,21.4604636 12.4432299,21.6960803 12.4432299,22.0561424 L12.4432299,23.5125688 Z M20.0232734,22.1420098 C19.7646302,21.8852374 19.7646302,21.4683452 20.0232734,21.2115728 C20.2823345,20.9548004 20.7018463,20.9548004 20.9604896,21.2115728 C21.2195506,21.46876 21.2195506,21.8852374 20.9604896,22.1420098 C20.7018463,22.399197 20.2819167,22.399197 20.0232734,22.1420098 Z M22.0965977,23.5196207 C21.8379545,23.7768079 21.4180248,23.7768079 21.1593816,23.5196207 C20.9007384,23.2628483 20.9007384,22.8459561 21.1593816,22.5891837 C21.4184427,22.3324113 21.8379545,22.3324113 22.0965977,22.5891837 C22.355241,22.8459561 22.355241,23.2624335 22.0965977,23.5196207 Z M23.6731097,24.412724 C23.4144665,24.6694965 22.9945368,24.6694965 22.7358936,24.412724 C22.4772504,24.1555368 22.4772504,23.7390594 22.7358936,23.482287 C22.9949547,23.2250998 23.4144665,23.2250998 23.6731097,23.482287 C23.931753,23.7390594 23.931753,24.1555368 23.6731097,24.412724 Z M25.5567345,24.7881344 C25.2980912,25.0449068 24.8781616,25.0449068 24.6195183,24.7881344 C24.3608751,24.5309472 24.3608751,24.1144698 24.6195183,23.8576974 C24.8781616,23.6005102 25.2980912,23.6005102 25.5567345,23.8576974 C25.8153777,24.1144698 25.8153777,24.5309472 25.5567345,24.7881344 Z M27.4403592,24.412724 C27.1812981,24.6694965 26.7617863,24.6694965 26.5031431,24.412724 C26.244082,24.1555368 26.244082,23.7390594 26.5031431,23.482287 C26.7617863,23.2250998 27.1817159,23.2250998 27.4403592,23.482287 C27.6990024,23.7390594 27.6990024,24.1555368 27.4403592,24.412724 Z M29.0164533,23.5196207 C28.7578101,23.7768079 28.3378805,23.7768079 28.0792372,23.5196207 C27.820594,23.2628483 27.820594,22.8459561 28.0792372,22.5891837 C28.3382983,22.3324113 28.7578101,22.3324113 29.0164533,22.5891837 C29.2755144,22.8459561 29.2755144,23.2624335 29.0164533,23.5196207 Z M30.1525615,22.1420098 C29.8939183,22.399197 29.4739886,22.399197 29.2153454,22.1420098 C28.9567022,21.8852374 28.9567022,21.4683452 29.2153454,21.2115728 C29.4744065,20.9548004 29.8939183,20.9548004 30.1525615,21.2115728 C30.4116226,21.46876 30.4116226,21.8852374 30.1525615,22.1420098 Z" id="Shape" fill-rule="nonzero"></path>
                <rect id="Rectangle-2" transform="translate(8.714684, 11.240829) rotate(-20.000000) translate(-8.714684, -11.240829) " x="2.43816159" y="10.9806251" width="12.5530441" height="1"></rect>
                <path d="M2.61901178,1.72023366 L10.9504404,1.72023366 L10.9504404,1.72023366 C11.5469079,1.72023366 12.0304404,2.20376613 12.0304404,2.80023366 L12.0304404,10.8362872 L1.53901178,10.8362872 L1.53901178,2.80023366 L1.53901178,2.80023366 C1.53901178,2.20376613 2.02254425,1.72023366 2.61901178,1.72023366 Z" id="Rectangle-3" transform="translate(6.784726, 6.278260) rotate(-20.000000) translate(-6.784726, -6.278260) "></path>
            </g>
        </g>
    </g>
</svg>