
<svg width="38px" height="37px" viewBox="0 0 38 37" version="1.1" xmlns="http://www.w3.org/2000/svg" xmlns:xlink="http://www.w3.org/1999/xlink">
    <!-- Generator: Sketch 45 (43475) - http://www.bohemiancoding.com/sketch -->
    <desc>Created with Sketch.</desc>
    <defs></defs>
    <g id="Symbols" stroke="none" stroke-width="1" fill="none" fill-rule="evenodd">
        <g id="icon-menue-/-settings-unfill" fill-rule="nonzero" fill="#69AAA4">
            <g id="settings">
                <path d="M36.034677,21.4566669 L34.9253302,20.2584349 C35.0546818,19.0995518 35.0546818,17.9298712 34.9253302,16.7709881 L36.034677,15.5801526 C36.6965873,14.8737874 37.8835885,13.938131 37.5138062,13.0468535 L35.994001,9.34860658 C35.6242187,8.45732908 34.1155069,8.64224142 33.1503752,8.6089572 L31.5122396,8.54978525 C30.785761,7.6419363 29.9624411,6.81604188 29.0568852,6.08675282 L29.0051157,4.44842945 C28.9755331,3.48688525 29.1641221,1.97430228 28.2655511,1.60447759 L24.5677283,0.0697051249 C23.6802508,-0.300119564 22.7373059,0.901810676 22.0347196,1.54900388 L20.8403228,2.65847795 C19.6803531,2.52880544 18.5095477,2.52880544 17.349578,2.65847795 L16.1625768,1.54900388 C15.4599905,0.890715935 14.5207435,-0.300119564 13.6295682,0.0697051249 L9.93174528,1.5896846 C9.04056996,1.95950929 9.22915893,3.47209227 9.1921807,4.43363646 L9.13301553,6.06826159 C8.22377944,6.79577514 7.39672496,7.62044424 6.66656767,8.52759577 L5.03212995,8.57937123 C4.070696,8.6089572 2.55828644,8.42034661 2.18850416,9.31902061 L0.653907659,13.0172675 C0.284125371,13.9048468 1.48591781,14.8442015 2.13303681,15.5468684 L3.24238368,16.7414021 C3.11272603,17.9015048 3.11272603,19.0724445 3.24238368,20.2325472 L2.13303681,21.4233827 C1.47482434,22.1260496 0.284125371,23.0617061 0.653907659,23.9529836 L2.17371286,27.6512305 C2.54349515,28.542508 4.05590471,28.3575956 5.02103649,28.3908798 L6.65177638,28.4463535 C7.38015754,29.3571857 8.20598687,30.1855899 9.11452642,30.9167825 L9.16259812,32.5477093 C9.1921807,33.5092535 9.00359173,35.0255348 9.90216269,35.3953595 L13.5999856,36.9301319 C14.4874631,37.2999566 15.4267101,36.0980264 16.1292964,35.4508332 L17.327391,34.3413591 C18.4849202,34.4704505 19.653211,34.4704505 20.8107402,34.3413591 L22.0014392,35.4508332 C22.7077233,36.1128194 23.6395747,37.2999566 24.53075,36.9301319 L28.2285729,35.4101524 C29.1197482,35.0403278 28.9348571,33.531443 28.9681375,32.5625023 L29.0236048,30.9278772 C29.9341339,30.2005701 30.7624358,29.3758936 31.4937505,28.468543 L33.1281882,28.4167676 C34.0896222,28.3871816 35.6057296,28.5757922 35.9755119,27.6771182 L37.5101083,23.9788713 C37.8946819,23.106085 36.6891917,22.1667303 36.034677,21.4566669 Z M19.1208351,27.2629145 C14.4393914,27.2629145 10.6491229,23.3390746 10.6491229,18.4980694 C10.6491229,13.6570642 14.4393914,9.73322426 19.1208351,9.73322426 C23.8022789,9.73322426 27.5925474,13.6570642 27.5925474,18.4980694 C27.5925474,23.3390746 23.8022789,27.2629145 19.1208351,27.2629145 Z" id="Shape"></path>
            </g>
        </g>
    </g>
</svg>