
<svg width="37px" height="37px" viewBox="0 0 37 37" version="1.1" xmlns="http://www.w3.org/2000/svg" xmlns:xlink="http://www.w3.org/1999/xlink">
    <!-- Generator: Sketch 45 (43475) - http://www.bohemiancoding.com/sketch -->
    <desc>Created with Sketch.</desc>
    <defs></defs>
    <g id="Symbols" stroke="none" stroke-width="1" fill="none" fill-rule="evenodd">
        <g id="icon-menue-/-settings-filled" fill-rule="nonzero" fill="#D04602">
            <path d="M35.4504665,21.4566669 L34.3411196,20.2584349 C34.4704712,19.0995518 34.4704712,17.9298712 34.3411196,16.7709881 L35.4504665,15.5801526 C36.1123768,14.8737874 37.2993779,13.938131 36.9295956,13.0468535 L35.4097904,9.34860658 C35.0400082,8.45732908 33.5312964,8.64224142 32.5661646,8.6089572 L30.9280291,8.54978525 C30.2015504,7.6419363 29.3782306,6.81604188 28.4726747,6.08675282 L28.4209052,4.44842945 C28.3913226,3.48688525 28.5799116,1.97430228 27.6813406,1.60447759 L23.9835177,0.0697051249 C23.0960402,-0.300119564 22.1530954,0.901810676 21.4505091,1.54900388 L20.2561123,2.65847795 C19.0961426,2.52880544 17.9253371,2.52880544 16.7653675,2.65847795 L15.5783663,1.54900388 C14.87578,0.890715935 13.9365329,-0.300119564 13.0453576,0.0697051249 L9.34753475,1.5896846 C8.45635943,1.95950929 8.6449484,3.47209227 8.60797017,4.43363646 L8.54880501,6.06826159 C7.63956892,6.79577514 6.81251444,7.62044424 6.08235714,8.52759577 L4.44791943,8.57937123 C3.48648548,8.6089572 1.97407592,8.42034661 1.60429363,9.31902061 L0.0696971331,13.0172675 C-0.300085155,13.9048468 0.901707282,14.8442015 1.54882629,15.5468684 L2.65817315,16.7414021 C2.5285155,17.9015048 2.5285155,19.0724445 2.65817315,20.2325472 L1.54882629,21.4233827 C0.890613813,22.1260496 -0.300085155,23.0617061 0.0696971331,23.9529836 L1.58950234,27.6512305 C1.95928463,28.542508 3.47169419,28.3575956 4.43682596,28.3908798 L6.06756585,28.4463535 C6.79594701,29.3571857 7.62177634,30.1855899 8.53031589,30.9167825 L8.57838759,32.5477093 C8.60797017,33.5092535 8.41938121,35.0255348 9.31795217,35.3953595 L13.0157751,36.9301319 C13.9032525,37.2999566 14.8424996,36.0980264 15.5450859,35.4508332 L16.7431805,34.3413591 C17.9007097,34.4704505 19.0690005,34.4704505 20.2265297,34.3413591 L21.4172286,35.4508332 C22.1235128,36.1128194 23.0553642,37.2999566 23.9465395,36.9301319 L27.6443624,35.4101524 C28.5355377,35.0403278 28.3506466,33.531443 28.383927,32.5625023 L28.4393943,30.9278772 C29.3499234,30.2005701 30.1782252,29.3758936 30.90954,28.468543 L32.5439777,28.4167676 C33.5054117,28.3871816 35.021519,28.5757922 35.3913013,27.6771182 L36.9258978,23.9788713 C37.3104714,23.106085 36.1049811,22.1667303 35.4504665,21.4566669 Z M18.5366246,27.2629145 C13.8551808,27.2629145 10.0649124,23.3390746 10.0649124,18.4980694 C10.0649124,13.6570642 13.8551808,9.73322426 18.5366246,9.73322426 C23.2180684,9.73322426 27.0083368,13.6570642 27.0083368,18.4980694 C27.0083368,23.3390746 23.2180684,27.2629145 18.5366246,27.2629145 Z" id="Shape"></path>
        </g>
    </g>
</svg>