
<svg width="36px" height="46px" viewBox="0 0 36 46" version="1.1" xmlns="http://www.w3.org/2000/svg" xmlns:xlink="http://www.w3.org/1999/xlink">
    <!-- Generator: Sketch 45 (43475) - http://www.bohemiancoding.com/sketch -->
    <desc>Created with Sketch.</desc>
    <defs></defs>
    <g id="Symbols" stroke="none" stroke-width="1" fill="none" fill-rule="evenodd">
        <g id="icon-menue-/-earth-unfill" transform="translate(0.000000, -2.000000)">
            <g id="earth">
                <path d="M18.35856,12.1510791 C16.94952,12.1510791 15.5862,12.3338129 14.27256,12.6456835 L14.89356,13.0517986 L17.33976,13.3967626 L18.46908,13.1460432 L20.58336,13.4039568 L21.00744,13.968705 L19.53504,13.7726619 L18.02952,14.3992806 L18.46188,15.5226619 L20.01708,16.228777 L20.22444,14.8068345 L21.699,14.7125899 L23.79996,16.7176259 L24.3954,17.5017986 L24.678,18.0028777 L23.04684,18.6456835 L20.583,19.7615108 L20.38104,20.8539568 L18.7506,22.3899281 L18.81396,23.8633094 L18.3204,23.8586331 L18.12348,22.6093525 L17.18892,22.3043165 L14.50224,22.4456835 L13.41936,24.426259 L14.36076,25.5546763 L15.91596,24.7068345 L16.02216,26.0874101 L16.61832,26.557554 L17.68356,27.7798561 L17.631,29.3233813 L19.59768,29.7848921 L21.03984,28.7507194 L21.69864,28.9697842 L24.11748,29.9345324 L27.51228,31.2061151 L28.21896,32.9014388 L30.63636,34.0776978 L31.18824,36.1510791 L29.53872,37.9946043 L27.594,40.031295 L25.53228,41.0971223 L23.4108,42.5093525 L20.583,44.3464029 L19.017,45.9384892 L18.46152,45.3348921 L19.71792,42.1535971 L20.03508,38.4658273 L17.3304,36.0100719 L17.34804,33.9438849 L18.05544,33.0960432 L18.88596,30.6413669 L17.20764,29.7046763 L16.07544,27.8683453 L14.3064,27.1888489 L11.53332,25.6960432 L10.40184,22.5870504 L9.83664,24.1410072 L8.98812,21.5985612 L9.27072,17.7838129 L10.6848,16.5122302 L10.26072,15.6643885 L11.25,14.1104317 L9.3222,14.6611511 C4.17636,17.7384892 0.72,23.3464029 0.72,29.7748201 C0.72,39.5071942 8.6166,47.3985612 18.35856,47.3985612 C28.09872,47.3985612 35.9964,39.5071942 35.9964,29.7748201 C35.9964,20.0413669 28.09872,12.1510791 18.35856,12.1510791 Z" id="Shape" fill="#69AAA4" fill-rule="nonzero"></path>
                <ellipse id="Oval-2" fill="#3E6360" transform="translate(23.649982, 17.830201) rotate(16.000000) translate(-23.649982, -17.830201) " cx="23.649982" cy="17.8302007" rx="2.16" ry="1.43884892"></ellipse>
                <path d="M26.6937656,2.44501572 C23.7113522,2.44501572 21.293677,4.84514362 21.293677,7.80573514 C21.293677,7.86922036 21.2956256,7.93393658 21.2984599,7.99900453 C21.3186545,8.56210605 21.4256501,9.10304929 21.607578,9.60917239 C22.7597292,13.3683411 26.6937656,18.2723538 26.6937656,18.2723538 C26.6937656,18.2723538 30.6272706,13.3686928 31.7795989,9.60934825 C31.961704,9.10322515 32.0686996,8.56193019 32.088717,7.99882867 C32.0920827,7.93376072 32.093677,7.86922036 32.093677,7.80555929 C32.0938542,4.84514362 29.6760019,2.44501572 26.6937656,2.44501572 Z M26.6937656,10.4313147 C25.233205,10.4313147 24.0489906,9.25569518 24.0489906,7.80573514 C24.0489906,6.35595097 25.233205,5.18033147 26.6937656,5.18033147 C28.1545034,5.18033147 29.3385406,6.35595097 29.3385406,7.80573514 C29.3385406,9.25569518 28.1545034,10.4313147 26.6937656,10.4313147 Z" id="Shape" fill="#5D948F" fill-rule="nonzero" transform="translate(26.693677, 10.358685) rotate(22.000000) translate(-26.693677, -10.358685) "></path>
            </g>
        </g>
    </g>
</svg>