
<svg width="22px" height="18px" viewBox="0 0 22 18" version="1.1" xmlns="http://www.w3.org/2000/svg" xmlns:xlink="http://www.w3.org/1999/xlink">
    <!-- Generator: Sketch 45 (43475) - http://www.bohemiancoding.com/sketch -->
    <desc>Created with Sketch.</desc>
    <defs></defs>
    <g id="Page-1" stroke="none" stroke-width="1" fill="none" fill-rule="evenodd">
        <g id="contacts-copy" transform="translate(-39.000000, -621.000000)" fill-rule="nonzero" fill="#69AAA4">
            <g id="mail" transform="translate(14.000000, 601.000000)">
                <g transform="translate(25.000000, 20.000000)">
                    <g id="Group" transform="translate(0.000000, 3.506494)">
                        <polygon id="Shape" points="14.67466 7.51137662 22 1.28431169 22 13.7384416"></polygon>
                        <polygon id="Shape" points="7.32556 7.51137662 0 1.28431169 0 13.7384416"></polygon>
                        <polygon id="Shape" points="0.8679 14.4575065 10.9549 5.88296104 21.04168 14.4575065"></polygon>
                        <polygon id="Shape" points="19.52038 0.0862597403 19.52038 1.9252987 21.68408 0.0862597403"></polygon>
                        <polygon id="Shape" points="2.38898 0.0862597403 0.22528 0.0862597403 2.38898 1.9252987"></polygon>
                    </g>
                    <path d="M3.29076,0 L3.29076,6.13122078 L8.13714,10.2506494 L10.9549,7.85571429 L13.77266,10.2506494 L18.61904,6.13122078 L18.61904,0 L3.29076,0 Z M5.32598,1.43696104 L8.70694,1.43696104 L8.70694,2.03587013 L5.32598,2.03587013 L5.32598,1.43696104 Z M14.33608,6.46690909 L5.3196,6.46690909 L5.3196,5.74854545 L14.33608,5.74854545 L14.33608,6.46690909 Z M14.33608,5.02994805 L5.3196,5.02994805 L5.3196,4.31135065 L14.33608,4.31135065 L14.33608,5.02994805 Z M14.33608,3.59275325 L5.3196,3.59275325 L5.3196,2.87415584 L14.33608,2.87415584 L14.33608,3.59275325 Z" id="Shape"></path>
                </g>
            </g>
        </g>
    </g>
</svg>