
<svg width="22px" height="19px" viewBox="0 0 22 19" version="1.1" xmlns="http://www.w3.org/2000/svg" xmlns:xlink="http://www.w3.org/1999/xlink">
    <!-- Generator: Sketch 45 (43475) - http://www.bohemiancoding.com/sketch -->
    <desc>Created with Sketch.</desc>
    <defs></defs>
    <g id="Page-1" stroke="none" stroke-width="1" fill="none" fill-rule="evenodd">
        <g id="contacts-copy" transform="translate(-39.000000, -562.000000)" fill-rule="nonzero" fill="#69AAA4">
            <g id="phone" transform="translate(39.000000, 562.000000)">
                <g id="Group">
                    <path d="M21.2666667,3.59146341 C20.7625,3.15121951 20.1208333,2.61829268 19.59375,2.29390244 C17.2791667,0.903658537 14.2083333,0.162195122 11,0.162195122 C7.76875,0.162195122 4.72083333,0.926829268 2.40625,2.29390244 C1.87916667,2.59512195 1.2375,3.15121951 0.733333333,3.59146341 C0.229166667,4.03170732 0.0229166667,4.70365854 0.160416667,5.35243902 L0.75625,8.1097561 C0.916666667,8.80487805 1.62708333,9.22195122 2.29166667,9.01341463 L6.21041667,7.76219512 C6.76041667,7.57682927 7.10416667,7.04390244 7.03541667,6.44146341 L6.76041667,4.26341463 C8.18125,3.84634146 9.35,3.61463415 10.9770833,3.61463415 C12.71875,3.61463415 13.8875,3.8695122 15.2625,4.28658537 L14.9875,6.44146341 C14.91875,7.02073171 15.2625,7.57682927 15.8125,7.76219512 L19.7083333,9.01341463 C20.3958333,9.24512195 21.10625,8.80487805 21.2666667,8.08658537 L21.8166667,5.30609756 C21.9770833,4.6804878 21.7479167,4.03170732 21.2666667,3.59146341 Z" id="Shape"></path>
                    <path d="M9.075,12.3036585 C9.075,11.9097561 8.75416667,11.6085366 8.3875,11.6085366 C7.99791667,11.6085366 7.7,11.9097561 7.7,12.3036585 C7.7,12.697561 7.99791667,12.9987805 8.3875,12.9987805 C8.77708333,13.0219512 9.075,12.697561 9.075,12.3036585 Z" id="Shape"></path>
                    <path d="M8.6625,13.6707317 C8.3875,13.9487805 8.3875,14.3890244 8.6625,14.6670732 C8.9375,14.945122 9.37291667,14.945122 9.64791667,14.6670732 C9.92291667,14.3890244 9.92291667,13.9487805 9.64791667,13.6707317 C9.37291667,13.4158537 8.9375,13.4158537 8.6625,13.6707317 Z" id="Shape"></path>
                    <path d="M8.6625,9.96341463 C8.3875,10.2414634 8.3875,10.6817073 8.6625,10.9597561 C8.9375,11.2378049 9.37291667,11.2378049 9.64791667,10.9597561 C9.92291667,10.6817073 9.92291667,10.2414634 9.64791667,9.96341463 C9.37291667,9.68536585 8.9375,9.68536585 8.6625,9.96341463 Z" id="Shape"></path>
                    <path d="M11,14.25 C10.6104167,14.25 10.3125,14.5512195 10.3125,14.945122 C10.3125,15.3390244 10.6104167,15.6402439 11,15.6402439 C11.3895833,15.6402439 11.6875,15.3158537 11.6875,14.945122 C11.6875,14.5512195 11.3895833,14.25 11,14.25 Z" id="Shape"></path>
                    <path d="M11,8.96707317 C10.6104167,8.96707317 10.3125,9.26829268 10.3125,9.66219512 C10.3125,10.0560976 10.6104167,10.3573171 11,10.3573171 C11.3895833,10.3573171 11.6875,10.0329268 11.6875,9.66219512 C11.6875,9.29146341 11.3895833,8.96707317 11,8.96707317 Z" id="Shape"></path>
                    <path d="M12.3520833,13.6707317 C12.0770833,13.9487805 12.0770833,14.3890244 12.3520833,14.6670732 C12.6270833,14.945122 13.0625,14.945122 13.3375,14.6670732 C13.6125,14.3890244 13.6125,13.9487805 13.3375,13.6707317 C13.0625,13.4158537 12.6270833,13.4158537 12.3520833,13.6707317 Z" id="Shape"></path>
                    <path d="M13.3375,10.9365854 C13.6125,10.6585366 13.6125,10.2182927 13.3375,9.9402439 C13.0625,9.66219512 12.6270833,9.66219512 12.3520833,9.9402439 C12.0770833,10.2182927 12.0770833,10.6585366 12.3520833,10.9365854 C12.6270833,11.2146341 13.0625,11.2146341 13.3375,10.9365854 Z" id="Shape"></path>
                    <path d="M12.925,12.3036585 C12.925,12.697561 13.2229167,12.9987805 13.6125,12.9987805 C14.0020833,12.9987805 14.3,12.6743902 14.3,12.3036585 C14.3,11.9097561 13.9791667,11.6085366 13.6125,11.6085366 C13.2229167,11.6085366 12.925,11.9329268 12.925,12.3036585 Z" id="Shape"></path>
                    <path d="M19.3416667,9.80121951 L15.5833333,8.59634146 C14.64375,8.29512195 14.0479167,7.34512195 14.1625,6.37195122 L14.3458333,4.93536585 C13.3145833,4.65731707 12.3520833,4.49512195 11,4.49512195 C9.69375,4.49512195 8.73125,4.65731707 7.7,4.91219512 L7.88333333,6.37195122 C7.99791667,7.36829268 7.40208333,8.29512195 6.4625,8.6195122 L2.63541667,9.84756098 L1.21458333,14.4353659 C0.664583333,16.2195122 1.97083333,18.0268293 3.82708333,18.0268293 L4.10208333,18.0268293 L4.10208333,18.5829268 C4.10208333,18.7219512 4.21666667,18.8609756 4.37708333,18.8609756 L5.98125,18.8609756 C6.11875,18.8609756 6.25625,18.745122 6.25625,18.5829268 L6.25625,18.0268293 L15.7895833,18.0268293 L15.7895833,18.5829268 C15.7895833,18.7219512 15.9041667,18.8609756 16.0645833,18.8609756 L17.66875,18.8609756 C17.80625,18.8609756 17.94375,18.745122 17.94375,18.5829268 L17.94375,18.0268293 L18.21875,18.0268293 C20.075,18.0268293 21.38125,16.2195122 20.83125,14.4353659 L19.3416667,9.80121951 Z M11,16.3353659 C8.8,16.3353659 7.03541667,14.5280488 7.03541667,12.3268293 C7.03541667,10.102439 8.82291667,8.31829268 11,8.31829268 C13.2,8.31829268 14.9645833,10.1256098 14.9645833,12.3268293 C14.9645833,14.5280488 13.2,16.3353659 11,16.3353659 Z" id="Shape"></path>
                </g>
            </g>
        </g>
    </g>
</svg>