
<svg width="22px" height="29px" viewBox="0 0 22 29" version="1.1" xmlns="http://www.w3.org/2000/svg" xmlns:xlink="http://www.w3.org/1999/xlink">
    <!-- Generator: Sketch 45 (43475) - http://www.bohemiancoding.com/sketch -->
    <desc>Created with Sketch.</desc>
    <defs></defs>
    <g id="Page-1" stroke="none" stroke-width="1" fill="none" fill-rule="evenodd">
        <g id="contacts-copy" transform="translate(-39.000000, -498.000000)">
            <g id="adress" transform="translate(14.000000, 483.000000)">
                <g id="earth" transform="translate(25.000000, 14.000000)">
                    <path d="M11.21912,7.59442446 C10.35804,7.59442446 9.5249,7.70863309 8.72212,7.90355216 L9.10162,8.1573741 L10.59652,8.37297662 L11.28666,8.21627698 L12.57872,8.37747302 L12.83788,8.73044065 L11.93808,8.60791367 L11.01804,8.99955036 L11.28226,9.70166367 L12.23266,10.1429856 L12.35938,9.25427158 L13.2605,9.19536871 L14.54442,10.4485162 L14.9083,10.9386241 L15.081,11.2517986 L14.08418,11.6535522 L12.5785,12.3509442 L12.45508,13.033723 L11.4587,13.993705 L11.49742,14.9145683 L11.1958,14.9116457 L11.07546,14.1308453 L10.50434,13.9401978 L8.86248,14.0285522 L8.20072,15.2664119 L8.77602,15.9716727 L9.72642,15.4417716 L9.79132,16.3046313 L10.15564,16.5984712 L10.80662,17.3624101 L10.7745,18.3271133 L11.97636,18.6155576 L12.85768,17.9691996 L13.26028,18.1061151 L14.73846,18.7090827 L16.81306,19.5038219 L17.24492,20.5633993 L18.72222,21.2985612 L19.05948,22.5944245 L18.05144,23.7466277 L16.863,25.0195594 L15.60306,25.6857014 L14.3066,26.5683453 L12.5785,27.7165018 L11.6215,28.7115558 L11.28204,28.3343076 L12.04984,26.3459982 L12.24366,24.0411421 L10.5908,22.506295 L10.60158,21.2149281 L11.03388,20.685027 L11.54142,19.1508543 L10.51578,18.5654227 L9.82388,17.4177158 L8.7428,16.9930306 L7.04814,16.060027 L6.35668,14.1169065 L6.01128,15.0881295 L5.49274,13.4991007 L5.66544,11.1148831 L6.5296,10.3201439 L6.27044,9.79024281 L6.875,8.81901978 L5.6969,9.16321942 C2.55222,11.0865558 0.44,14.5915018 0.44,18.6092626 C0.44,24.6919964 5.2657,29.6241007 11.21912,29.6241007 C17.17144,29.6241007 21.9978,24.6919964 21.9978,18.6092626 C21.9978,12.5258543 17.17144,7.59442446 11.21912,7.59442446 Z" id="Shape" fill="#69AAA4" fill-rule="nonzero"></path>
                    <ellipse id="Oval-2" fill="#3E6360" transform="translate(14.452767, 11.143875) rotate(16.000000) translate(-14.452767, -11.143875) " cx="14.4527668" cy="11.1438754" rx="1.32" ry="1"></ellipse>
                    <path d="M16.3128568,1.52813483 C14.4902708,1.52813483 13.0128026,3.02821476 13.0128026,4.87858447 C13.0128026,4.91826272 13.0139934,4.95871036 13.0157255,4.99937783 C13.0280666,5.35131628 13.0934528,5.68940581 13.204631,6.00573275 C13.9087234,8.35521316 16.3128568,11.4202212 16.3128568,11.4202212 C16.3128568,11.4202212 18.7166654,8.35543299 19.420866,6.00584266 C19.5321524,5.68951572 19.5975386,5.35120637 19.6097715,4.99926792 C19.6118283,4.95860045 19.6128026,4.91826272 19.6128026,4.87847455 C19.6129109,3.02821476 18.1353345,1.52813483 16.3128568,1.52813483 Z M16.3128568,6.51957168 C15.4202919,6.51957168 14.6966053,5.78480949 14.6966053,4.87858447 C14.6966053,3.97246936 15.4202919,3.23770717 16.3128568,3.23770717 C17.2055298,3.23770717 17.9291082,3.97246936 17.9291082,4.87858447 C17.9291082,5.78480949 17.2055298,6.51957168 16.3128568,6.51957168 Z" id="Shape" fill="#5D948F" fill-rule="nonzero" transform="translate(16.312803, 6.474178) rotate(22.000000) translate(-16.312803, -6.474178) "></path>
                </g>
            </g>
        </g>
    </g>
</svg>