
<svg width="10px" height="18px" viewBox="0 0 10 18" version="1.1" xmlns="http://www.w3.org/2000/svg" xmlns:xlink="http://www.w3.org/1999/xlink">
    <!-- Generator: Sketch 45 (43475) - http://www.bohemiancoding.com/sketch -->
    <desc>Created with Sketch.</desc>
    <defs></defs>
    <g id="ios-symbols" stroke="none" stroke-width="1" fill="none" fill-rule="evenodd">
        <g id="back" fill-rule="nonzero" fill="#000000">
            <path d="M4.6,13.4 L4.6,3.80598718 C4.6,3.35913617 4.2418278,3 3.8,3 C3.35509186,3 3,3.36085275 3,3.80598718 L3,14.1940128 L3.00000537,14.1970077 L3,14.2 C3,14.4214588 3.08940774,14.6206639 3.23411379,14.7648992 C3.380873,14.9110162 3.58007274,15 3.8,15 L3.80299488,14.9999946 L3.80598718,15 L14.1940128,15 C14.6408638,15 15,14.6418278 15,14.2 C15,13.7550918 14.6391473,13.4 14.1940128,13.4 L4.6,13.4 Z" id="Shape" transform="translate(9.000000, 9.000000) rotate(45.000000) translate(-9.000000, -9.000000) "></path>
        </g>
    </g>
</svg>