
<svg width="100px" height="100px" viewBox="0 0 30 28" version="1.1" xmlns="http://www.w3.org/2000/svg" xmlns:xlink="http://www.w3.org/1999/xlink">
    <!-- Generator: Sketch 44.1 (41455) - http://www.bohemiancoding.com/sketch -->
    <desc>Created with Sketch.</desc>
    <defs></defs>
    <g id="ios-symbols" stroke="none" stroke-width="1" fill="none" fill-rule="evenodd">
        <g id="list" fill="#000000">
            <g id="contact">
                <path d="M24.2666667,8.17894737 L23.5,8.17894737 L23.4333333,8.17894737 C21.4333333,8.17894737 19.8,6.37368421 19.8,4.12631579 C19.8,1.87894737 21.4333333,0.0736842105 23.4333333,0.0736842105 C25.3666667,0.0736842105 26.8333333,1.87894737 27.0666667,3.86842105 C27.3,5.85789474 29.2333333,5.45263158 29.9,5.26842105 C28.5666667,7.07368421 26.5333333,8.10526316 24.2666667,8.17894737" id="Shape"></path>
                <path d="M30,17.9421053 C29.8666667,18.6421053 29.3333333,19.1578947 28.6666667,19.1578947 L20.0666667,19.1578947 C19.3,17.4631579 18.3,16.0263158 17.0666667,14.9210526 C18.1666667,11.7894737 20.5,9.61578947 23.2333333,9.61578947 C26.7333333,9.61578947 29.6333333,13.2631579 30,17.9421053" id="Shape"></path>
                <path d="M18.0333333,27.9263158 L1.96666667,27.9263158 C1.03333333,27.9263158 0.233333333,27.1894737 0,26.1947368 C0.533333333,19.4526316 4.8,14.2210526 10,14.2210526 C15.2,14.2210526 19.4666667,19.4526316 20,26.1947368 C19.8,27.1894737 19,27.9263158 18.0333333,27.9263158" id="Shape"></path>
                <path d="M10,11.9368421 C7.23333333,11.9368421 4.96666667,9.39473684 4.96666667,6.22631579 C4.96666667,3.05789474 7.23333333,0.515789474 10,0.515789474 C12.7666667,0.515789474 15.0333333,3.05789474 15.0333333,6.22631579 C15.0333333,9.35789474 12.7666667,11.9368421 10,11.9368421" id="Shape"></path>
            </g>
        </g>
    </g>
</svg>