
<svg width="18px" height="16px" viewBox="0 0 18 16" version="1.1" xmlns="http://www.w3.org/2000/svg" xmlns:xlink="http://www.w3.org/1999/xlink">
    <!-- Generator: Sketch 45 (43475) - http://www.bohemiancoding.com/sketch -->
    <desc>Created with Sketch.</desc>
    <defs></defs>
    <g id="Symbols" stroke="none" stroke-width="1" fill="none" fill-rule="evenodd">
        <g id="heart-favourite-/-fill" fill-rule="nonzero">
            <g id="heart-copy">
                <path d="M16.0248583,9.25600595 C15.2821608,10.1494022 14.5691713,10.9534587 8.89496277,15.4799995 C3.19104638,10.9534587 2.50776473,10.1494022 1.76506729,9.25600595 C-0.968059316,5.98021985 -0.225361869,2.28751552 1.94331467,0.738962093 C3.87432804,-0.630912094 6.60745464,-0.124654242 8.89496277,2.49597464 C11.1824709,-0.0948743687 13.9155975,-0.630912094 15.8466109,0.738962093 C18.0152874,2.28751552 18.7876928,5.98021985 16.0248583,9.25600595 Z" id="Shape" fill="#F8D21C"></path>
                <path d="M16.0248583,9.25600595 C15.8579511,9.45677986 15.5113718,9.88090536 14.9292615,10.440827 C14.3471513,11.0007486 13.9247008,11.3489447 13.2549622,11.9259489 C12.2013716,12.8336554 10.7480384,14.018339 8.89496277,15.4799995 L8.89496277,2.49597464 C9.14942094,2.19190062 9.47449621,1.86959449 9.87018858,1.52905623 C10.1952669,1.24928938 10.8330353,0.749824288 11.6722459,0.40033382 C12.5114564,0.0508433518 13.0679829,0.00285809318 13.5294336,0.00285809318 C14.5496548,0.00285809318 15.2363666,0.303603535 15.8466109,0.738962093 C18.0160033,2.2866433 18.7876928,5.98021985 16.0248583,9.25600595 Z" id="Shape" fill="#D04602"></path>
                <path d="M14.7855575,9.25600595 C14.6476617,9.45677986 14.361324,9.88090536 13.8803947,10.440827 C13.3994654,11.0007486 13.0504442,11.3489447 12.4971179,11.9259489 C11.6266598,12.8336554 10.4259414,14.018339 8.89496277,15.4799995 L8.89496277,2.49597464 C9.10519165,2.19190062 9.37376315,1.86959449 9.70067725,1.52905623 C9.96925127,1.24928938 10.4961643,0.749824288 11.1895054,0.40033382 C11.8828465,0.0508433518 12.3426389,0.00285809318 12.7238814,0.00285809318 C13.5667703,0.00285809318 14.1341196,0.303603535 14.6382927,0.738962093 C16.4306066,2.2866433 17.068163,5.98021985 14.7855575,9.25600595 Z" id="Shape" fill="#F8D21C"></path>
                <path d="M13.3915612,9.25600595 C13.2862981,9.45677986 13.0677216,9.88090536 12.7006031,10.440827 C12.3334847,11.0007486 12.0670586,11.3489447 11.6446758,11.9259489 C10.9802097,12.8336554 10.0636387,14.018339 8.89496277,15.4799995 L8.89496277,2.49597464 C9.05544145,2.19190062 9.26045609,1.86959449 9.51000668,1.52905623 C9.71502325,1.24928938 10.1172435,0.749824288 10.6465069,0.40033382 C11.1757703,0.0508433518 11.5267539,0.00285809318 11.8177762,0.00285809318 C12.4611972,0.00285809318 12.8942846,0.303603535 13.2791462,0.738962093 C14.647313,2.2866433 15.133993,5.98021985 13.3915612,9.25600595 Z" id="Shape" fill="#C0A317"></path>
            </g>
        </g>
    </g>
</svg>