
<svg width="100px" height="100px" viewBox="0 0 34 32" version="1.1" xmlns="http://www.w3.org/2000/svg" xmlns:xlink="http://www.w3.org/1999/xlink">
    <!-- Generator: Sketch 44.1 (41455) - http://www.bohemiancoding.com/sketch -->
    <desc>Created with Sketch.</desc>
    <defs></defs>
    <g id="ios-symbols" stroke="none" stroke-width="1" fill="none" fill-rule="evenodd">
        <g id="map" transform="translate(1.000000, 1.000000)" stroke-width="0.6" stroke="#000000" fill-rule="nonzero" fill="#000000">
            <path d="M4.38475,0 C1.96828125,0 0,1.84593673 0,4.3750138 C0,4.95607606 0.1625,5.89529442 0.3515625,6.40626296 L4.375,15.0000062 L8.3984375,6.40626296 C8.58640625,5.89548192 8.75,4.95582606 8.75,4.3750138 C8.75,1.84593673 6.80128125,0 4.38475,0 Z M4.37503917,1.75005865 C5.82476129,1.75005865 7,2.92530562 7,4.37504026 C7,5.82471365 5.82476129,7 4.37503917,7 C2.9253608,7 1.75007833,5.82471365 1.75007833,4.37504026 C1.75007833,2.92530562 2.9253608,1.75005865 4.37503917,1.75005865 Z M26.9903125,13.1250102 C24.228625,13.1250102 22.0000625,15.2798186 22.0000625,18.1250049 C22.0000625,18.7784109 22.1856563,19.7574105 22.4004375,20.3320353 L27,30 L31.599625,20.3320353 C31.8155938,19.757223 32,18.7786922 32,18.1250049 C32,15.2798186 29.7518438,13.1250102 26.99025,13.1250102 L26.9903125,13.1250102 Z M6.5566875,13.9550723 L6.0000625,15.1269437 C10.6510938,15.9599121 12.704625,17.0660679 13.4903125,18.0956925 C13.903,18.6365672 14.0250625,19.1717858 14.0274063,19.7949105 C14.0305313,20.4180665 13.8839375,21.1192225 13.7539688,21.8652221 C13.624,22.6112531 13.5046875,23.408159 13.6367813,24.2382837 C13.768875,25.0683771 14.1766875,25.9117517 14.9941875,26.6406264 C16.5699063,28.0453133 19.5473438,29.1184066 25.267625,29.9120938 L24.6133438,28.5449069 C19.5427188,27.7706884 16.9830938,26.7372826 15.8340625,25.7128768 C15.2064063,25.153377 14.9603438,24.628096 14.86725,24.0429712 C14.7741563,23.4578152 14.85975,22.796503 14.9844375,22.0800658 C15.10925,21.3636598 15.2804375,20.5920039 15.2774063,19.7851605 C15.2742813,18.9783171 15.0694688,18.1207237 14.476625,17.3437553 C13.3755938,15.9007246 11.1066875,14.7980376 6.5566875,13.9550723 L6.5566875,13.9550723 Z M27,15.1249812 C28.6568571,15.1249812 30,16.4681291 30,18.1249924 C30,19.7818129 28.6568571,21.1250037 27,21.1250037 C25.3431857,21.1250037 24,19.7818129 24,18.1249924 C24,16.4681291 25.3431857,15.1249812 27,15.1249812 Z"></path>
        </g>
    </g>
</svg>