
<svg width="100px" height="100px" viewBox="0 0 18 18" version="1.1" xmlns="http://www.w3.org/2000/svg" xmlns:xlink="http://www.w3.org/1999/xlink">
    <!-- Generator: Sketch 44.1 (41455) - http://www.bohemiancoding.com/sketch -->
    <desc>Created with Sketch.</desc>
    <defs></defs>
    <g id="ios-symbols" stroke="none" stroke-width="1" fill="none" fill-rule="evenodd">
        <g id="profile-icon-/-map" fill-rule="nonzero" fill="#000000">
            <g id="Group">
                <polygon id="Shape" points="2.73673469 8.12142857 0 17.8071429 4.11428571 16.3071429 5.47346939 6.66428571"></polygon>
                <polygon id="Shape" points="4.57346939 16.3285714 8.76122449 17.85 8.76122449 8.07857143 5.95102041 6.6"></polygon>
                <path d="M11.9020408,9.32142857 L10.9653061,7.15714286 L9.23877551,8.07857143 L9.23877551,17.85 L13.4265306,16.3285714 L12.5081633,9.85714286 C12.2510204,9.81428571 12.0306122,9.62142857 11.9020408,9.32142857 Z" id="Shape"></path>
                <path d="M15.2632653,8.12142857 L14.1979592,7.56428571 C13.7938776,8.48571429 13.444898,9.3 13.4081633,9.34285714 C13.3163265,9.55714286 13.1510204,9.72857143 12.9673469,9.81428571 L13.8857143,16.3071429 L18,17.8071429 L15.2632653,8.12142857 Z" id="Shape"></path>
                <path d="M12.3244898,9.08571429 C12.4714286,9.40714286 12.8755102,9.40714286 13.0040816,9.08571429 C13.0040816,9.08571429 14.6204082,5.42142857 14.9877551,4.54285714 C15.355102,3.68571429 15.3734694,2.7 14.9877551,1.82142857 C14.344898,0.321428571 12.7836735,-0.278571429 11.4979592,0.471428571 C10.2122449,1.22142857 9.71632653,3.10714286 10.3408163,4.54285714 C10.9653061,6 12.3244898,9.08571429 12.3244898,9.08571429 Z M12.6734694,1.60714286 C13.4265306,1.60714286 14.0326531,2.31428571 14.0326531,3.19285714 C14.0326531,4.07142857 13.4265306,4.77857143 12.6734694,4.77857143 C11.9204082,4.77857143 11.3142857,4.07142857 11.3142857,3.19285714 C11.3142857,2.31428571 11.9204082,1.60714286 12.6734694,1.60714286 Z" id="Shape"></path>
            </g>
        </g>
    </g>
</svg>