
<svg width="100px" height="100px" viewBox="0 0 18 18" version="1.1" xmlns="http://www.w3.org/2000/svg" xmlns:xlink="http://www.w3.org/1999/xlink">
    <!-- Generator: Sketch 44.1 (41455) - http://www.bohemiancoding.com/sketch -->
    <desc>Created with Sketch.</desc>
    <defs></defs>
    <g id="ios-symbols" stroke="none" stroke-width="1" fill="none" fill-rule="evenodd">
        <g id="profile-icon-/-phone" fill-rule="nonzero" fill="#000000">
            <path d="M2.83797228,0.0163966211 C2.71349703,-0.00856572192 2.56412674,-0.00856572192 2.46454654,0.0413589641 C1.12021388,0.565568167 0.273782206,2.48766858 0.0746218117,3.81067276 C-0.54775442,8.10419575 2.83797228,11.8235849 5.94985344,14.2698945 C8.71320391,16.4416183 14.0158494,20.0112334 17.1526256,16.56643 C17.5509464,16.1420702 18.0239523,15.5180116 17.9990573,14.893953 C17.9243721,13.8455346 16.9534652,13.0966643 16.2066137,12.5225305 C15.6340276,12.0981706 14.4390652,10.9249405 13.6922138,10.9499028 C13.0200474,10.9748652 12.5968316,11.6738108 12.1736158,12.0981706 L11.4267643,12.8470409 C11.302289,12.9718526 9.70900588,11.9234342 9.53474054,11.7986225 C8.88746926,11.3742627 8.26509302,10.8999782 7.71740194,10.375769 C7.16971086,9.85155976 6.67180987,9.27742587 6.24859403,8.67832964 C6.12411879,8.50359324 5.10342177,6.98089031 5.20300196,6.8560786 C5.20300196,6.8560786 6.07432869,5.90750957 6.32327918,5.53307442 C6.84607521,4.73427945 7.244396,4.11022087 6.64691482,3.16165184 C6.42285938,2.81217904 6.14901384,2.53759326 5.85027324,2.23804515 C5.32747721,1.73879829 4.80468117,1.21458908 4.20719999,0.790229254 C3.88356435,0.540605824 3.33587327,0.09128365 2.83797228,0.0163966211 Z" id="Shape"></path>
        </g>
    </g>
</svg>