
<svg width="100px" height="100px" viewBox="0 0 18 18" version="1.1" xmlns="http://www.w3.org/2000/svg" xmlns:xlink="http://www.w3.org/1999/xlink">
    <!-- Generator: Sketch 44.1 (41455) - http://www.bohemiancoding.com/sketch -->
    <desc>Created with Sketch.</desc>
    <defs></defs>
    <g id="ios-symbols" stroke="none" stroke-width="1" fill="none" fill-rule="evenodd">
        <g id="profile-icon-/-web" fill-rule="nonzero" fill="#000000">
            <path d="M9,0 C4.02943725,-3.04359188e-16 6.08718376e-16,4.02943725 0,9 C-6.08718376e-16,13.9705627 4.02943725,18 9,18 C13.9705627,18 18,13.9705627 18,9 C18,6.61305159 17.0517884,4.32386638 15.363961,2.63603897 C13.6761336,0.948211563 11.3869484,1.46158436e-16 9,0 Z M14.0922,12.0006 C14.2581198,11.2105612 14.3568722,10.4078962 14.3874,9.6012 L16.7778,9.6012 C16.7150821,10.4268047 16.519991,11.2369493 16.2,12.0006 L14.0922,12.0006 Z M3.9078,5.9994 C3.74189723,6.78944167 3.64314493,7.59210516 3.6126,8.3988 L1.2222,8.3988 C1.28491786,7.57319534 1.48000897,6.76305065 1.8,5.9994 L3.9078,5.9994 L3.9078,5.9994 Z M12.8628,5.9994 C13.0457069,6.78728779 13.1541836,7.59061793 13.1868,8.3988 L9.5994,8.3988 L9.5994,5.9994 L12.8628,5.9994 L12.8628,5.9994 Z M9.5994,4.8006 L9.5994,1.287 C9.8897772,1.37499155 10.1635079,1.51064032 10.4094,1.6884 C10.9710398,2.11085063 11.4402691,2.64378729 11.7882,3.2544 C12.0783295,3.744939 12.3194912,4.2628337 12.5082,4.8006 L9.5994,4.8006 Z M6.21,3.2526 C6.55788932,2.6419576 7.02712549,2.10901313 7.5888,1.6866 C7.8346921,1.50884032 8.1084228,1.37319155 8.3988,1.2852 L8.3988,4.8006 L5.4882,4.8006 C5.67736435,4.26214187 5.9191327,3.74363618 6.21,3.2526 L6.21,3.2526 Z M8.4006,5.9994 L8.4006,8.4006 L4.8132,8.4006 C4.8458376,7.59241978 4.95431402,6.78909162 5.1372,6.0012 L8.4006,6.0012 L8.4006,5.9994 Z M1.8,12.0006 C1.48062687,11.2368457 1.28614439,10.4267046 1.224,9.6012 L3.6126,9.6012 C3.64314493,10.4078948 3.74189723,11.2105583 3.9078,12.0006 L1.8,12.0006 Z M4.8132,9.5994 L8.4006,9.5994 L8.4006,12.0006 L5.1372,12.0006 C4.95420238,11.2121198 4.84572526,10.4081838 4.8132,9.5994 L4.8132,9.5994 Z M8.4006,13.1994 L8.4006,16.713 C8.11023514,16.6249773 7.8365094,16.489331 7.5906,16.3116 C7.0289602,15.8891494 6.55973091,15.3562127 6.2118,14.7456 C5.92167052,14.255061 5.68050885,13.7371663 5.4918,13.1994 L8.4006,13.1994 L8.4006,13.1994 Z M11.79,14.7474 C11.4420691,15.3580127 10.9728398,15.8909494 10.4112,16.3134 C10.1652906,16.491131 9.89156486,16.6267773 9.6012,16.7148 L9.6012,13.1994 L12.5118,13.1994 C12.3226032,13.7378449 12.0808363,14.2563475 11.79,14.7474 L11.79,14.7474 Z M9.5994,12.0006 L9.5994,9.5994 L13.1868,9.5994 C13.1542365,10.4075867 13.0457592,11.2109218 12.8628,11.9988 L9.5994,11.9988 L9.5994,12.0006 Z M14.3874,8.4006 C14.3568722,7.59390378 14.2581198,6.79123884 14.0922,6.0012 L16.2,6.0012 C16.5193433,6.764964 16.7138247,7.57510024 16.776,8.4006 L14.3874,8.4006 Z M15.5736,4.8006 L13.7736,4.8006 C13.4645606,3.78207726 12.9869398,2.82257675 12.3606,1.962 C13.6748574,2.59153341 14.7879852,3.57440154 15.5754,4.8006 L15.5736,4.8006 Z M3.4848,3.4848 C4.10981311,2.85789349 4.83726228,2.34228725 5.6358,1.9602 C5.0094893,2.82079443 4.5318711,3.78028985 4.2228,4.7988 L2.4228,4.7988 C2.72830236,4.32372861 3.08438041,3.88315746 3.4848,3.4848 L3.4848,3.4848 Z M2.4246,13.2048 L4.2246,13.2048 C4.5336711,14.2233102 5.0112893,15.1828056 5.6376,16.0434 C4.32336277,15.4120355 3.21083321,14.4272754 2.4246,13.1994 L2.4246,13.2048 Z M14.5152,14.5206 C13.8901869,15.1475065 13.1627377,15.6631127 12.3642,16.0452 C12.9905982,15.1846586 13.468224,14.2251479 13.7772,13.2066 L15.5772,13.2066 C15.2714021,13.6798038 14.9153325,14.1185539 14.5152,14.5152 L14.5152,14.5206 Z" id="Shape"></path>
        </g>
    </g>
</svg>